<svg id="visual" viewBox="0 0 450 900" width="450" height="900" xmlns="http://www.w3.org/2000/svg" xmlns:xlink="http://www.w3.org/1999/xlink" version="1.1"><rect x="0" y="0" width="450" height="900" fill="#001220"></rect><path d="M144 0L150.7 21.5C157.3 43 170.7 86 177.8 128.8C185 171.7 186 214.3 177.8 257.2C169.7 300 152.3 343 147.5 385.8C142.7 428.7 150.3 471.3 155.3 514.2C160.3 557 162.7 600 160.3 642.8C158 685.7 151 728.3 142.7 771.2C134.3 814 124.7 857 119.8 878.5L115 900L0 900L0 878.5C0 857 0 814 0 771.2C0 728.3 0 685.7 0 642.8C0 600 0 557 0 514.2C0 471.3 0 428.7 0 385.8C0 343 0 300 0 257.2C0 214.3 0 171.7 0 128.8C0 86 0 43 0 21.5L0 0Z" fill="#133917"></path><path d="M99 0L98 21.5C97 43 95 86 100.7 128.8C106.3 171.7 119.7 214.3 127.5 257.2C135.3 300 137.7 343 134.2 385.8C130.7 428.7 121.3 471.3 115.5 514.2C109.7 557 107.3 600 110.2 642.8C113 685.7 121 728.3 126.2 771.2C131.3 814 133.7 857 134.8 878.5L136 900L0 900L0 878.5C0 857 0 814 0 771.2C0 728.3 0 685.7 0 642.8C0 600 0 557 0 514.2C0 471.3 0 428.7 0 385.8C0 343 0 300 0 257.2C0 214.3 0 171.7 0 128.8C0 86 0 43 0 21.5L0 0Z" fill="#214e26"></path><path d="M118 0L117.8 21.5C117.7 43 117.3 86 116.2 128.8C115 171.7 113 214.3 111.8 257.2C110.7 300 110.3 343 103.5 385.8C96.7 428.7 83.3 471.3 84.7 514.2C86 557 102 600 103.7 642.8C105.3 685.7 92.7 728.3 87.8 771.2C83 814 86 857 87.5 878.5L89 900L0 900L0 878.5C0 857 0 814 0 771.2C0 728.3 0 685.7 0 642.8C0 600 0 557 0 514.2C0 471.3 0 428.7 0 385.8C0 343 0 300 0 257.2C0 214.3 0 171.7 0 128.8C0 86 0 43 0 21.5L0 0Z" fill="#2f6536"></path><path d="M61 0L61.7 21.5C62.3 43 63.7 86 68.5 128.8C73.3 171.7 81.7 214.3 80.2 257.2C78.7 300 67.3 343 61.2 385.8C55 428.7 54 471.3 53.5 514.2C53 557 53 600 53 642.8C53 685.7 53 728.3 51.7 771.2C50.3 814 47.7 857 46.3 878.5L45 900L0 900L0 878.5C0 857 0 814 0 771.2C0 728.3 0 685.7 0 642.8C0 600 0 557 0 514.2C0 471.3 0 428.7 0 385.8C0 343 0 300 0 257.2C0 214.3 0 171.7 0 128.8C0 86 0 43 0 21.5L0 0Z" fill="#3e7d47"></path><path d="M40 0L39.2 21.5C38.3 43 36.7 86 35.8 128.8C35 171.7 35 214.3 33.8 257.2C32.7 300 30.3 343 31.8 385.8C33.3 428.7 38.7 471.3 37.7 514.2C36.7 557 29.3 600 31.3 642.8C33.3 685.7 44.7 728.3 44.8 771.2C45 814 34 857 28.5 878.5L23 900L0 900L0 878.5C0 857 0 814 0 771.2C0 728.3 0 685.7 0 642.8C0 600 0 557 0 514.2C0 471.3 0 428.7 0 385.8C0 343 0 300 0 257.2C0 214.3 0 171.7 0 128.8C0 86 0 43 0 21.5L0 0Z" fill="#4d9559"></path></svg>