<svg id="visual" viewBox="0 0 450 900" width="450" height="900" xmlns="http://www.w3.org/2000/svg" xmlns:xlink="http://www.w3.org/1999/xlink" version="1.1"><path d="M128 0L126.5 12.5C125 25 122 50 118.5 75C115 100 111 125 114.7 150C118.3 175 129.7 200 133.8 225C138 250 135 275 127.3 300C119.7 325 107.3 350 109.2 375C111 400 127 425 133.5 450C140 475 137 500 136 525C135 550 136 575 130.2 600C124.3 625 111.7 650 105.8 675C100 700 101 725 103.7 750C106.3 775 110.7 800 117.2 825C123.7 850 132.3 875 136.7 887.5L141 900L0 900L0 887.5C0 875 0 850 0 825C0 800 0 775 0 750C0 725 0 700 0 675C0 650 0 625 0 600C0 575 0 550 0 525C0 500 0 475 0 450C0 425 0 400 0 375C0 350 0 325 0 300C0 275 0 250 0 225C0 200 0 175 0 150C0 125 0 100 0 75C0 50 0 25 0 12.5L0 0Z" fill="#9694a0"></path><path d="M112 0L109 12.5C106 25 100 50 93.7 75C87.3 100 80.7 125 79.3 150C78 175 82 200 82.3 225C82.7 250 79.3 275 77.2 300C75 325 74 350 77.3 375C80.7 400 88.3 425 90.8 450C93.3 475 90.7 500 92.2 525C93.7 550 99.3 575 102 600C104.7 625 104.3 650 98.8 675C93.3 700 82.7 725 77.3 750C72 775 72 800 76.7 825C81.3 850 90.7 875 95.3 887.5L100 900L0 900L0 887.5C0 875 0 850 0 825C0 800 0 775 0 750C0 725 0 700 0 675C0 650 0 625 0 600C0 575 0 550 0 525C0 500 0 475 0 450C0 425 0 400 0 375C0 350 0 325 0 300C0 275 0 250 0 225C0 200 0 175 0 150C0 125 0 100 0 75C0 50 0 25 0 12.5L0 0Z" fill="#816b78"></path><path d="M70 0L68.5 12.5C67 25 64 50 65.8 75C67.7 100 74.3 125 75.2 150C76 175 71 200 66.2 225C61.3 250 56.7 275 59 300C61.3 325 70.7 350 74.2 375C77.7 400 75.3 425 73.7 450C72 475 71 500 70.5 525C70 550 70 575 66.2 600C62.3 625 54.7 650 54.7 675C54.7 700 62.3 725 66.3 750C70.3 775 70.7 800 69.3 825C68 850 65 875 63.5 887.5L62 900L0 900L0 887.5C0 875 0 850 0 825C0 800 0 775 0 750C0 725 0 700 0 675C0 650 0 625 0 600C0 575 0 550 0 525C0 500 0 475 0 450C0 425 0 400 0 375C0 350 0 325 0 300C0 275 0 250 0 225C0 200 0 175 0 150C0 125 0 100 0 75C0 50 0 25 0 12.5L0 0Z" fill="#694646"></path><path d="M49 0L47.2 12.5C45.3 25 41.7 50 38.8 75C36 100 34 125 32.5 150C31 175 30 200 30.2 225C30.3 250 31.7 275 31 300C30.3 325 27.7 350 30 375C32.3 400 39.7 425 40.5 450C41.3 475 35.7 500 32.3 525C29 550 28 575 30.3 600C32.7 625 38.3 650 39.2 675C40 700 36 725 33.3 750C30.7 775 29.3 800 32 825C34.7 850 41.3 875 44.7 887.5L48 900L0 900L0 887.5C0 875 0 850 0 825C0 800 0 775 0 750C0 725 0 700 0 675C0 650 0 625 0 600C0 575 0 550 0 525C0 500 0 475 0 450C0 425 0 400 0 375C0 350 0 325 0 300C0 275 0 250 0 225C0 200 0 175 0 150C0 125 0 100 0 75C0 50 0 25 0 12.5L0 0Z" fill="#432a14"></path></svg>