<svg id="visual" viewBox="0 0 450 900" width="450" height="900" xmlns="http://www.w3.org/2000/svg" xmlns:xlink="http://www.w3.org/1999/xlink" version="1.1"><path d="M181 0L182 18.8C183 37.7 185 75.3 183.7 112.8C182.3 150.3 177.7 187.7 174.2 225.2C170.7 262.7 168.3 300.3 170 337.8C171.7 375.3 177.3 412.7 177.2 450.2C177 487.7 171 525.3 168.2 562.8C165.3 600.3 165.7 637.7 165.5 675.2C165.3 712.7 164.7 750.3 164.3 787.8C164 825.3 164 862.7 164 881.3L164 900L0 900L0 881.3C0 862.7 0 825.3 0 787.8C0 750.3 0 712.7 0 675.2C0 637.7 0 600.3 0 562.8C0 525.3 0 487.7 0 450.2C0 412.7 0 375.3 0 337.8C0 300.3 0 262.7 0 225.2C0 187.7 0 150.3 0 112.8C0 75.3 0 37.7 0 18.8L0 0Z" fill="#824202"></path><path d="M143 0L146.5 18.8C150 37.7 157 75.3 158.8 112.8C160.7 150.3 157.3 187.7 157.8 225.2C158.3 262.7 162.7 300.3 160.3 337.8C158 375.3 149 412.7 143.5 450.2C138 487.7 136 525.3 139.2 562.8C142.3 600.3 150.7 637.7 155.5 675.2C160.3 712.7 161.7 750.3 158.3 787.8C155 825.3 147 862.7 143 881.3L139 900L0 900L0 881.3C0 862.7 0 825.3 0 787.8C0 750.3 0 712.7 0 675.2C0 637.7 0 600.3 0 562.8C0 525.3 0 487.7 0 450.2C0 412.7 0 375.3 0 337.8C0 300.3 0 262.7 0 225.2C0 187.7 0 150.3 0 112.8C0 75.3 0 37.7 0 18.8L0 0Z" fill="#822916"></path><path d="M134 0L134.2 18.8C134.3 37.7 134.7 75.3 135 112.8C135.3 150.3 135.7 187.7 131.7 225.2C127.7 262.7 119.3 300.3 117.7 337.8C116 375.3 121 412.7 124.8 450.2C128.7 487.7 131.3 525.3 130.3 562.8C129.3 600.3 124.7 637.7 123.8 675.2C123 712.7 126 750.3 128.5 787.8C131 825.3 133 862.7 134 881.3L135 900L0 900L0 881.3C0 862.7 0 825.3 0 787.8C0 750.3 0 712.7 0 675.2C0 637.7 0 600.3 0 562.8C0 525.3 0 487.7 0 450.2C0 412.7 0 375.3 0 337.8C0 300.3 0 262.7 0 225.2C0 187.7 0 150.3 0 112.8C0 75.3 0 37.7 0 18.8L0 0Z" fill="#7a0e26"></path><path d="M93 0L94.5 18.8C96 37.7 99 75.3 96.3 112.8C93.7 150.3 85.3 187.7 81.5 225.2C77.7 262.7 78.3 300.3 81.8 337.8C85.3 375.3 91.7 412.7 94.2 450.2C96.7 487.7 95.3 525.3 94.3 562.8C93.3 600.3 92.7 637.7 93.3 675.2C94 712.7 96 750.3 93.5 787.8C91 825.3 84 862.7 80.5 881.3L77 900L0 900L0 881.3C0 862.7 0 825.3 0 787.8C0 750.3 0 712.7 0 675.2C0 637.7 0 600.3 0 562.8C0 525.3 0 487.7 0 450.2C0 412.7 0 375.3 0 337.8C0 300.3 0 262.7 0 225.2C0 187.7 0 150.3 0 112.8C0 75.3 0 37.7 0 18.8L0 0Z" fill="#6a0034"></path><path d="M60 0L58.5 18.8C57 37.7 54 75.3 56 112.8C58 150.3 65 187.7 67 225.2C69 262.7 66 300.3 63.3 337.8C60.7 375.3 58.3 412.7 60.2 450.2C62 487.7 68 525.3 67.5 562.8C67 600.3 60 637.7 60.2 675.2C60.3 712.7 67.7 750.3 71.2 787.8C74.7 825.3 74.3 862.7 74.2 881.3L74 900L0 900L0 881.3C0 862.7 0 825.3 0 787.8C0 750.3 0 712.7 0 675.2C0 637.7 0 600.3 0 562.8C0 525.3 0 487.7 0 450.2C0 412.7 0 375.3 0 337.8C0 300.3 0 262.7 0 225.2C0 187.7 0 150.3 0 112.8C0 75.3 0 37.7 0 18.8L0 0Z" fill="#500040"></path><path d="M21 0L23.3 18.8C25.7 37.7 30.3 75.3 33.7 112.8C37 150.3 39 187.7 37 225.2C35 262.7 29 300.3 25.8 337.8C22.7 375.3 22.3 412.7 22.2 450.2C22 487.7 22 525.3 25.8 562.8C29.7 600.3 37.3 637.7 41.2 675.2C45 712.7 45 750.3 43 787.8C41 825.3 37 862.7 35 881.3L33 900L0 900L0 881.3C0 862.7 0 825.3 0 787.8C0 750.3 0 712.7 0 675.2C0 637.7 0 600.3 0 562.8C0 525.3 0 487.7 0 450.2C0 412.7 0 375.3 0 337.8C0 300.3 0 262.7 0 225.2C0 187.7 0 150.3 0 112.8C0 75.3 0 37.7 0 18.8L0 0Z" fill="#290149"></path></svg>