<svg id="visual" viewBox="0 0 450 900" width="450" height="900" xmlns="http://www.w3.org/2000/svg" xmlns:xlink="http://www.w3.org/1999/xlink" version="1.1"><rect x="0" y="0" width="450" height="900" fill="#001220"></rect><path d="M96 0L94.8 12.5C93.7 25 91.3 50 88.8 75C86.3 100 83.7 125 86.5 150C89.3 175 97.7 200 100.8 225C104 250 102 275 96.2 300C90.3 325 80.7 350 82 375C83.3 400 95.7 425 100.7 450C105.7 475 103.3 500 102.5 525C101.7 550 102.3 575 98 600C93.7 625 84.3 650 80 675C75.7 700 76.3 725 78.3 750C80.3 775 83.7 800 88.5 825C93.3 850 99.7 875 102.8 887.5L106 900L0 900L0 887.5C0 875 0 850 0 825C0 800 0 775 0 750C0 725 0 700 0 675C0 650 0 625 0 600C0 575 0 550 0 525C0 500 0 475 0 450C0 425 0 400 0 375C0 350 0 325 0 300C0 275 0 250 0 225C0 200 0 175 0 150C0 125 0 100 0 75C0 50 0 25 0 12.5L0 0Z" fill="#000000"></path><path d="M84 0L81.8 12.5C79.7 25 75.3 50 70.7 75C66 100 61 125 60 150C59 175 62 200 62.2 225C62.3 250 59.7 275 58 300C56.3 325 55.7 350 58.2 375C60.7 400 66.3 425 68.2 450C70 475 68 500 69.2 525C70.3 550 74.7 575 76.8 600C79 625 79 650 74.8 675C70.7 700 62.3 725 58.2 750C54 775 54 800 57.5 825C61 850 68 875 71.5 887.5L75 900L0 900L0 887.5C0 875 0 850 0 825C0 800 0 775 0 750C0 725 0 700 0 675C0 650 0 625 0 600C0 575 0 550 0 525C0 500 0 475 0 450C0 425 0 400 0 375C0 350 0 325 0 300C0 275 0 250 0 225C0 200 0 175 0 150C0 125 0 100 0 75C0 50 0 25 0 12.5L0 0Z" fill="#640000"></path><path d="M52 0L51 12.5C50 25 48 50 49.5 75C51 100 56 125 56.7 150C57.3 175 53.7 200 50 225C46.3 250 42.7 275 44.3 300C46 325 53 350 55.7 375C58.3 400 56.7 425 55.5 450C54.3 475 53.7 500 53.3 525C53 550 53 575 50.2 600C47.3 625 41.7 650 41.7 675C41.7 700 47.3 725 50.2 750C53 775 53 800 52 825C51 850 49 875 48 887.5L47 900L0 900L0 887.5C0 875 0 850 0 825C0 800 0 775 0 750C0 725 0 700 0 675C0 650 0 625 0 600C0 575 0 550 0 525C0 500 0 475 0 450C0 425 0 400 0 375C0 350 0 325 0 300C0 275 0 250 0 225C0 200 0 175 0 150C0 125 0 100 0 75C0 50 0 25 0 12.5L0 0Z" fill="#8e0407"></path><path d="M37 0L35.7 12.5C34.3 25 31.7 50 29.5 75C27.3 100 25.7 125 24.5 150C23.3 175 22.7 200 22.8 225C23 250 24 275 23.5 300C23 325 21 350 22.8 375C24.7 400 30.3 425 31 450C31.7 475 27.3 500 24.8 525C22.3 550 21.7 575 23.3 600C25 625 29 650 29.7 675C30.3 700 27.7 725 25.7 750C23.7 775 22.3 800 24.2 825C26 850 31 875 33.5 887.5L36 900L0 900L0 887.5C0 875 0 850 0 825C0 800 0 775 0 750C0 725 0 700 0 675C0 650 0 625 0 600C0 575 0 550 0 525C0 500 0 475 0 450C0 425 0 400 0 375C0 350 0 325 0 300C0 275 0 250 0 225C0 200 0 175 0 150C0 125 0 100 0 75C0 50 0 25 0 12.5L0 0Z" fill="#b71111"></path></svg>