<svg id="visual" viewBox="0 0 450 900" width="450" height="900" xmlns="http://www.w3.org/2000/svg" xmlns:xlink="http://www.w3.org/1999/xlink" version="1.1"><path d="M186 0L174 21.5C162 43 138 86 136.8 128.8C135.7 171.7 157.3 214.3 166.8 257.2C176.3 300 173.7 343 164.3 385.8C155 428.7 139 471.3 137.2 514.2C135.3 557 147.7 600 156.7 642.8C165.7 685.7 171.3 728.3 173 771.2C174.7 814 172.3 857 171.2 878.5L170 900L0 900L0 878.5C0 857 0 814 0 771.2C0 728.3 0 685.7 0 642.8C0 600 0 557 0 514.2C0 471.3 0 428.7 0 385.8C0 343 0 300 0 257.2C0 214.3 0 171.7 0 128.8C0 86 0 43 0 21.5L0 0Z" fill="#ded226"></path><path d="M123 0L120.3 21.5C117.7 43 112.3 86 110.7 128.8C109 171.7 111 214.3 118.7 257.2C126.3 300 139.7 343 137 385.8C134.3 428.7 115.7 471.3 116 514.2C116.3 557 135.7 600 134.8 642.8C134 685.7 113 728.3 103 771.2C93 814 94 857 94.5 878.5L95 900L0 900L0 878.5C0 857 0 814 0 771.2C0 728.3 0 685.7 0 642.8C0 600 0 557 0 514.2C0 471.3 0 428.7 0 385.8C0 343 0 300 0 257.2C0 214.3 0 171.7 0 128.8C0 86 0 43 0 21.5L0 0Z" fill="#e0aa00"></path><path d="M103 0L99.8 21.5C96.7 43 90.3 86 87.3 128.8C84.3 171.7 84.7 214.3 84.8 257.2C85 300 85 343 86 385.8C87 428.7 89 471.3 94.5 514.2C100 557 109 600 112.3 642.8C115.7 685.7 113.3 728.3 108.2 771.2C103 814 95 857 91 878.5L87 900L0 900L0 878.5C0 857 0 814 0 771.2C0 728.3 0 685.7 0 642.8C0 600 0 557 0 514.2C0 471.3 0 428.7 0 385.8C0 343 0 300 0 257.2C0 214.3 0 171.7 0 128.8C0 86 0 43 0 21.5L0 0Z" fill="#db8100"></path><path d="M45 0L49.3 21.5C53.7 43 62.3 86 66 128.8C69.7 171.7 68.3 214.3 68.7 257.2C69 300 71 343 71.3 385.8C71.7 428.7 70.3 471.3 66.7 514.2C63 557 57 600 57.5 642.8C58 685.7 65 728.3 68.2 771.2C71.3 814 70.7 857 70.3 878.5L70 900L0 900L0 878.5C0 857 0 814 0 771.2C0 728.3 0 685.7 0 642.8C0 600 0 557 0 514.2C0 471.3 0 428.7 0 385.8C0 343 0 300 0 257.2C0 214.3 0 171.7 0 128.8C0 86 0 43 0 21.5L0 0Z" fill="#d15600"></path><path d="M53 0L53.5 21.5C54 43 55 86 51.5 128.8C48 171.7 40 214.3 35.2 257.2C30.3 300 28.7 343 28 385.8C27.3 428.7 27.7 471.3 31.5 514.2C35.3 557 42.7 600 44.3 642.8C46 685.7 42 728.3 40 771.2C38 814 38 857 38 878.5L38 900L0 900L0 878.5C0 857 0 814 0 771.2C0 728.3 0 685.7 0 642.8C0 600 0 557 0 514.2C0 471.3 0 428.7 0 385.8C0 343 0 300 0 257.2C0 214.3 0 171.7 0 128.8C0 86 0 43 0 21.5L0 0Z" fill="#c31c06"></path></svg>